<svg width="115" height="40" viewBox="0 0 115 40" fill="none" xmlns="http://www.w3.org/2000/svg">
<path d="M58.9152 31.6996C57.257 31.6996 55.8752 31.5933 54.7697 31.3807C53.6642 31.1468 52.7607 30.7748 52.0591 30.2646C51.3788 29.7543 50.858 29.0741 50.4966 28.2237C50.1564 27.3733 49.9226 26.3103 49.795 25.0348C49.6674 23.7592 49.6037 22.2392 49.6037 20.4747C49.6037 18.7102 49.6674 17.1901 49.795 15.9146C49.9226 14.639 50.1564 13.5761 50.4966 12.7257C50.858 11.8753 51.3788 11.195 52.0591 10.6848C52.7607 10.1746 53.6642 9.81316 54.7697 9.60057C55.8752 9.36672 57.257 9.24979 58.9152 9.24979C59.553 9.24979 60.212 9.27105 60.8923 9.31357C61.5726 9.35609 62.2317 9.41987 62.8694 9.5049C63.5072 9.58994 64.0493 9.69624 64.4958 9.82379V13.8099C63.8367 13.7461 63.2309 13.693 62.6781 13.6505C62.1466 13.5867 61.6789 13.5548 61.275 13.5548C60.8711 13.5335 60.5309 13.5229 60.2546 13.5229C59.2766 13.5229 58.4688 13.5654 57.831 13.6505C57.2145 13.7142 56.7255 13.8737 56.3641 14.1288C56.0027 14.3839 55.737 14.7666 55.5669 15.2768C55.3968 15.7658 55.2799 16.4354 55.2161 17.2858C55.1736 18.1149 55.1523 19.1779 55.1523 20.4747C55.1523 21.7502 55.1736 22.8132 55.2161 23.6636C55.2799 24.5139 55.3968 25.1942 55.5669 25.7045C55.737 26.2147 56.0027 26.5973 56.3641 26.8525C56.7255 27.0863 57.2145 27.2458 57.831 27.3308C58.4688 27.3946 59.2766 27.4265 60.2546 27.4265C60.9136 27.4265 61.6577 27.4052 62.4868 27.3627C63.3159 27.2989 64.0281 27.2245 64.6233 27.1395V31.2212C64.1556 31.3063 63.5923 31.3807 62.9332 31.4445C62.2742 31.5295 61.5939 31.5933 60.8923 31.6358C60.212 31.6783 59.553 31.6996 58.9152 31.6996ZM76.3365 31.6996C75.4862 31.6996 74.5614 31.6783 73.5622 31.6358C72.5843 31.5933 71.617 31.5295 70.6603 31.4445C69.7249 31.3594 68.8852 31.2744 68.1411 31.1893V27.0757C68.9277 27.1395 69.7143 27.2032 70.5009 27.267C71.3087 27.3308 72.074 27.3733 72.7969 27.3946C73.5197 27.4158 74.1256 27.4265 74.6145 27.4265C75.635 27.4265 76.4109 27.3946 76.9424 27.3308C77.4739 27.2458 77.8672 27.1288 78.1223 26.98C78.2924 26.8312 78.4093 26.6718 78.4731 26.5017C78.5581 26.3316 78.6113 26.1296 78.6325 25.8958C78.6538 25.6619 78.6644 25.3962 78.6644 25.0986C78.6644 24.6521 78.6325 24.3013 78.5687 24.0462C78.5262 23.7699 78.4199 23.5573 78.2499 23.4085C78.101 23.2596 77.8672 23.1533 77.5483 23.0896C77.2294 23.0045 76.8149 22.9301 76.3046 22.8663L71.8083 22.2923C70.9367 22.1861 70.2245 21.9735 69.6717 21.6546C69.119 21.3144 68.6832 20.868 68.3643 20.3152C68.0454 19.7625 67.8222 19.1141 67.6946 18.37C67.5671 17.6047 67.5033 16.7543 67.5033 15.8189C67.5033 14.3733 67.7159 13.2253 68.1411 12.3749C68.5663 11.5033 69.1509 10.8442 69.895 10.3978C70.6603 9.93009 71.5426 9.62183 72.5417 9.47301C73.5622 9.3242 74.6677 9.24979 75.8582 9.24979C76.7086 9.24979 77.5908 9.28168 78.505 9.34546C79.4191 9.38798 80.2801 9.46238 81.088 9.56868C81.8958 9.65372 82.5655 9.76001 83.097 9.88757V13.9056C82.5655 13.8205 81.9383 13.7568 81.2155 13.7142C80.514 13.6505 79.7805 13.6079 79.0152 13.5867C78.2499 13.5442 77.527 13.5229 76.8467 13.5229C76.0176 13.5229 75.3586 13.5548 74.8696 13.6186C74.3807 13.6611 73.998 13.7568 73.7216 13.9056C73.424 14.0756 73.2327 14.2989 73.1476 14.5752C73.0839 14.8516 73.052 15.2024 73.052 15.6276C73.052 16.1591 73.0945 16.5736 73.1795 16.8712C73.2646 17.1476 73.4559 17.3389 73.7535 17.4452C74.0512 17.5515 74.5082 17.6472 75.1247 17.7322L79.4935 18.2425C80.0888 18.3062 80.6309 18.4125 81.1199 18.5613C81.6301 18.7102 82.0872 18.944 82.4911 19.2629C82.9163 19.5818 83.267 20.0389 83.5434 20.6341C83.6922 20.9105 83.8092 21.2506 83.8942 21.6546C83.9792 22.0372 84.0536 22.4837 84.1174 22.9939C84.1812 23.5041 84.2131 24.0781 84.2131 24.7159C84.2131 25.9702 84.0855 27.0332 83.8304 27.9048C83.5753 28.7552 83.2139 29.4355 82.7462 29.9457C82.2785 30.4346 81.7151 30.8173 81.0561 31.0937C80.397 31.3488 79.6636 31.5082 78.8557 31.572C78.0692 31.6571 77.2294 31.6996 76.3365 31.6996ZM87.9508 31.4445V9.5049H93.4995V31.4445H87.9508ZM106.108 31.6996C105.257 31.6996 104.333 31.6783 103.333 31.6358C102.356 31.5933 101.388 31.5295 100.432 31.4445C99.4962 31.3594 98.6564 31.2744 97.9123 31.1893V27.0757C98.6989 27.1395 99.4855 27.2032 100.272 27.267C101.08 27.3308 101.845 27.3733 102.568 27.3946C103.291 27.4158 103.897 27.4265 104.386 27.4265C105.406 27.4265 106.182 27.3946 106.714 27.3308C107.245 27.2458 107.638 27.1288 107.894 26.98C108.064 26.8312 108.181 26.6718 108.244 26.5017C108.329 26.3316 108.383 26.1296 108.404 25.8958C108.425 25.6619 108.436 25.3962 108.436 25.0986C108.436 24.6521 108.404 24.3013 108.34 24.0462C108.297 23.7699 108.191 23.5573 108.021 23.4085C107.872 23.2596 107.638 23.1533 107.32 23.0896C107.001 23.0045 106.586 22.9301 106.076 22.8663L101.58 22.2923C100.708 22.1861 99.9958 21.9735 99.443 21.6546C98.8903 21.3144 98.4545 20.868 98.1356 20.3152C97.8167 19.7625 97.5935 19.1141 97.4659 18.37C97.3383 17.6047 97.2746 16.7543 97.2746 15.8189C97.2746 14.3733 97.4872 13.2253 97.9123 12.3749C98.3375 11.5033 98.9222 10.8442 99.6662 10.3978C100.432 9.93009 101.314 9.62183 102.313 9.47301C103.333 9.3242 104.439 9.24979 105.629 9.24979C106.48 9.24979 107.362 9.28168 108.276 9.34546C109.19 9.38798 110.051 9.46238 110.859 9.56868C111.667 9.65372 112.337 9.76001 112.868 9.88757V13.9056C112.337 13.8205 111.71 13.7568 110.987 13.7142C110.285 13.6505 109.552 13.6079 108.786 13.5867C108.021 13.5442 107.298 13.5229 106.618 13.5229C105.789 13.5229 105.13 13.5548 104.641 13.6186C104.152 13.6611 103.769 13.7568 103.493 13.9056C103.195 14.0756 103.004 14.2989 102.919 14.5752C102.855 14.8516 102.823 15.2024 102.823 15.6276C102.823 16.1591 102.866 16.5736 102.951 16.8712C103.036 17.1476 103.227 17.3389 103.525 17.4452C103.822 17.5515 104.279 17.6472 104.896 17.7322L109.265 18.2425C109.86 18.3062 110.402 18.4125 110.891 18.5613C111.401 18.7102 111.858 18.944 112.262 19.2629C112.688 19.5818 113.038 20.0389 113.315 20.6341C113.463 20.9105 113.58 21.2506 113.665 21.6546C113.75 22.0372 113.825 22.4837 113.889 22.9939C113.952 23.5041 113.984 24.0781 113.984 24.7159C113.984 25.9702 113.857 27.0332 113.602 27.9048C113.347 28.7552 112.985 29.4355 112.517 29.9457C112.05 30.4346 111.486 30.8173 110.827 31.0937C110.168 31.3488 109.435 31.5082 108.627 31.572C107.84 31.6571 107.001 31.6996 106.108 31.6996Z" fill="white"/>
<ellipse cx="19.9038" cy="20" rx="19.9038" ry="20" fill="#D9D9D9"/>
<ellipse cx="17.6923" cy="15.5555" rx="13.2692" ry="13.3333" fill="#DC4949"/>
<ellipse cx="22.1154" cy="22.2223" rx="6.63462" ry="6.66667" fill="#61EC99"/>
</svg>
